<?xml version="1.0" encoding="UTF-8" standalone="no"?>
<svg
   xmlns:dc="http://purl.org/dc/elements/1.1/"
   xmlns:cc="http://creativecommons.org/ns#"
   xmlns:rdf="http://www.w3.org/1999/02/22-rdf-syntax-ns#"
   xmlns:svg="http://www.w3.org/2000/svg"
   xmlns="http://www.w3.org/2000/svg"
   xmlns:sodipodi="http://sodipodi.sourceforge.net/DTD/sodipodi-0.dtd"
   xmlns:inkscape="http://www.inkscape.org/namespaces/inkscape"
   version="1.1"
   id="svg2"
   xml:space="preserve"
   width="480"
   height="543.22668"
   viewBox="0 0 480 543.22668"
   sodipodi:docname="Векторный смарт-объект1.ai"><metadata
     id="metadata8"><rdf:RDF><cc:Work
         rdf:about=""><dc:format>image/svg+xml</dc:format><dc:type
           rdf:resource="http://purl.org/dc/dcmitype/StillImage" /></cc:Work></rdf:RDF></metadata><defs
     id="defs6"><clipPath
       clipPathUnits="userSpaceOnUse"
       id="clipPath18"><path
         d="M 0,407.42 H 360 V 0 H 0 Z"
         id="path16" /></clipPath></defs><sodipodi:namedview
     pagecolor="#ffffff"
     bordercolor="#666666"
     borderopacity="1"
     objecttolerance="10"
     gridtolerance="10"
     guidetolerance="10"
     inkscape:pageopacity="0"
     inkscape:pageshadow="2"
     inkscape:window-width="640"
     inkscape:window-height="480"
     id="namedview4" /><g
     id="g10"
     inkscape:groupmode="layer"
     inkscape:label="Векторный смарт-объект1"
     transform="matrix(1.3333333,0,0,-1.3333333,0,543.22667)"><g
       id="g12"><g
         id="g14"
         clip-path="url(#clipPath18)"><g
           id="g20"
           transform="translate(140.1802,262.8901)"><path
             d="m 0,0 v -16.28 c -0.09,0 -0.17,0 -0.26,-0.01 -66.65,-1.69 -119.95,-56.02 -119.95,-123.07 0,-30.44 10.73,-58.33 29.01,-79.89 1.22,-1.43 2.48,-2.84 3.76,-4.22 -31.86,22.37 -52.74,59.35 -52.74,101.15 0,68.11 55.42,123.53 123.53,123.53 C -11,1.21 -5.45,0.74 0,0"
             style="fill:#25f4ee;fill-opacity:1;fill-rule:nonzero;stroke:none"
             id="path22" /></g><g
           id="g24"
           transform="translate(248.7197,389.98)"><path
             d="m 0,0 h -0.3 l -48.4,0.02 -0.26,-268.59 c -1.13,-30.12 -26.269,-54.639 -56.67,-54.639 -16.47,0 -31.27,7.389 -41.59,18.759 -1.469,1.619 -2.85,3.32 -4.14,5.1 7.83,-4.12 16.73,-6.481 26.171,-6.481 30.389,0 55.179,24.171 56.309,54.291 l 0.11,268.98 h 67.11 c 0,-5.82 0.56,-11.51 1.591,-17.03 z"
             style="fill:#25f4ee;fill-opacity:1;fill-rule:nonzero;stroke:none"
             id="path26" /></g><g
           id="g28"
           transform="translate(340.4404,314.0498)"><path
             d="m 0,0 v -15.76 c -0.11,0.02 -0.21,0.05 -0.32,0.07 -18.71,4.08 -35.34,14.49 -48.031,28.04 -0.849,0.91 -1.679,1.83 -2.5,2.77 C -36.21,5.57 -18.75,0 0,0"
             style="fill:#25f4ee;fill-opacity:1;fill-rule:nonzero;stroke:none"
             id="path30" /></g><g
           id="g32"
           transform="translate(289.5898,329.1699)"><path
             d="M 0,0 C -2.63,1.72 -5.17,3.56 -7.609,5.52 -24.63,19.17 -36.95,38.6 -41.17,60.81 c -0.03,0.14 -0.05,0.27 -0.08,0.41 h 18.29 C -22.96,37.81 -14.29,16.4 0,0"
             style="fill:#fe2c55;fill-opacity:1;fill-rule:nonzero;stroke:none"
             id="path34" /></g><g
           id="g36"
           transform="translate(159.7402,245.8599)"><path
             d="m 0,0 v -68.52 c -5.271,1.66 -10.84,2.61 -16.65,2.61 -31.1,0 -56.41,-25.31 -56.41,-56.42 0,-12.28 3.99,-23.63 10.68,-32.9 -2.25,1.18 -4.41,2.51 -6.47,3.97 -14.46,10.23 -24.15,27.01 -24.15,45.97 0,31.1 25.68,56.93 56.79,56.93 5.81,0 10.939,-0.73 16.21,-2.38 l 0.18,51.48 v 0.38 c 0.09,0.01 0.17,0.01 0.26,0.01 0.97,0.03 1.94,0.08 2.91,0.08 C -10.99,1.21 -5.45,0.74 0,0"
             style="fill:#fe2c55;fill-opacity:1;fill-rule:nonzero;stroke:none"
             id="path38" /></g><g
           id="g40"
           transform="translate(360,297.0098)"><path
             d="m 0,0 v -67.11 c -34.8,0 -67.05,11.13 -93.37,30.03 v -136.399 c 0,-68.111 -55.42,-123.531 -123.54,-123.531 -35.64,0 -67.78,15.2 -90.35,39.42 1.25,-0.88 2.52,-1.74 3.81,-2.57 19.31,-12.47 42.31,-19.47 66.98,-19.47 68.12,0 123.14,55.07 123.14,123.191 l -0.02,137.109 c 26.32,-18.89 58.66,-30.35 93.46,-30.35 l 0.01,51.03 v 0.79 l 0.32,-0.06 C -13.25,0.73 -6.71,0 0,0"
             style="fill:#fe2c55;fill-opacity:1;fill-rule:nonzero;stroke:none"
             id="path42" /></g><g
           id="g44"
           transform="translate(19.9697,123.5303)"><path
             d="M 0,0 C 0,-30.44 10.73,-58.33 29.01,-79.891 10.68,-58.33 -0.41,-30.44 -0.41,0 c 0,67.05 53.71,121.76 120.36,123.45 0.09,0.01 0.17,0.01 0.26,0.01 V 70.85 c -5.27,1.65 -10.84,2.599 -16.649,2.599 C 72.45,73.449 47.14,48.14 47.14,17.04 47.14,-1.92 56.55,-18.69 70.92,-28.931 56.46,-18.7 46.771,-1.92 46.771,17.04 c 0,31.1 25.679,56.93 56.79,56.93 5.809,0 10.939,-0.731 16.21,-2.38 l 0.179,51.48 C 53.3,121.38 0,67.05 0,0"
             style="fill:#ffffff;fill-opacity:1;fill-rule:nonzero;stroke:none"
             id="path46" /></g><g
           id="g48"
           transform="translate(143.0898,67.1201)"><path
             d="m 0,0 c 30.4,0 55.19,24.17 56.311,54.29 l 0.109,268.98 h 49.141 c 4.139,-22.38 16.269,-41.96 33.33,-55.7 -17.021,13.65 -29.341,33.08 -33.561,55.29 L 56.93,322.88 56.67,54.29 C 55.54,24.17 30.4,-0.35 0,-0.35 -16.47,-0.35 -31.27,7.04 -41.59,18.41 -31.26,7.12 -16.46,0 0,0"
             style="fill:#ffffff;fill-opacity:1;fill-rule:nonzero;stroke:none"
             id="path50" /></g><g
           id="g52"
           transform="translate(340.4404,299.0898)"><path
             d="m 0,0 v -52.16 c -34.801,0 -67.051,11.13 -93.381,30.03 v -136.39 c 0,-68.12 -55.409,-123.54 -123.529,-123.54 -24.671,0 -47.671,7.3 -66.981,19.82 19.31,-12.47 42.31,-19.47 66.981,-19.47 68.12,0 123.139,55.07 123.139,123.19 l -0.019,137.11 c 26.319,-18.89 58.659,-30.35 93.46,-30.35 l 0.01,51.03 C -19.03,3.35 -35.66,13.76 -48.351,27.31 -35.58,13.77 -18.841,4.04 0,0"
             style="fill:#ffffff;fill-opacity:1;fill-rule:nonzero;stroke:none"
             id="path54" /></g></g></g></g></svg>
