<?xml version="1.0" encoding="UTF-8" standalone="no"?>
<svg
   xmlns:dc="http://purl.org/dc/elements/1.1/"
   xmlns:cc="http://creativecommons.org/ns#"
   xmlns:rdf="http://www.w3.org/1999/02/22-rdf-syntax-ns#"
   xmlns:svg="http://www.w3.org/2000/svg"
   xmlns="http://www.w3.org/2000/svg"
   xmlns:sodipodi="http://sodipodi.sourceforge.net/DTD/sodipodi-0.dtd"
   xmlns:inkscape="http://www.inkscape.org/namespaces/inkscape"
   version="1.1"
   id="svg2"
   xml:space="preserve"
   width="417.47601"
   height="99.431602"
   viewBox="0 0 417.47601 99.431602"
   sodipodi:docname="Векторный смарт-объект (2).ai"><metadata
     id="metadata8"><rdf:RDF><cc:Work
         rdf:about=""><dc:format>image/svg+xml</dc:format><dc:type
           rdf:resource="http://purl.org/dc/dcmitype/StillImage" /></cc:Work></rdf:RDF></metadata><defs
     id="defs6"><clipPath
       clipPathUnits="userSpaceOnUse"
       id="clipPath18"><path
         d="M 0,74.574 H 313.107 V 0 H 0 Z"
         id="path16" /></clipPath></defs><sodipodi:namedview
     pagecolor="#ffffff"
     bordercolor="#666666"
     borderopacity="1"
     objecttolerance="10"
     gridtolerance="10"
     guidetolerance="10"
     inkscape:pageopacity="0"
     inkscape:pageshadow="2"
     inkscape:window-width="640"
     inkscape:window-height="480"
     id="namedview4" /><g
     id="g10"
     inkscape:groupmode="layer"
     inkscape:label="Векторный смарт-объект (2)"
     transform="matrix(1.3333333,0,0,-1.3333333,0,99.4316)"><g
       id="g12"><g
         id="g14"
         clip-path="url(#clipPath18)"><g
           id="g20"
           transform="translate(55.3197,59.6257)"><path
             d="m 0,0 c -4.018,2.619 -6.917,6.81 -7.821,11.695 -0.196,1.055 -0.303,2.141 -0.303,3.253 h -12.82 l -0.021,-51.381 c -0.216,-5.754 -4.951,-10.372 -10.757,-10.372 -1.804,0 -3.504,0.451 -4.999,1.238 -3.43,1.806 -5.778,5.401 -5.778,9.539 0,5.943 4.835,10.778 10.777,10.778 1.11,0 2.173,-0.183 3.18,-0.499 v 10.052 3.037 c -1.041,0.142 -2.1,0.23 -3.18,0.23 -13.012,0 -23.597,-10.586 -23.597,-23.598 0,-7.984 3.988,-15.049 10.074,-19.321 3.832,-2.691 8.495,-4.276 13.523,-4.276 13.012,0 23.598,10.585 23.598,23.597 v 26.055 c 5.028,-3.61 11.189,-5.736 17.837,-5.736 v 9.964 2.856 C 6.132,-2.889 2.797,-1.824 0,0"
             style="fill:#fff;fill-opacity:1;fill-rule:nonzero;stroke:none"
             id="path22" /></g><g
           id="g24"
           transform="translate(77.2777,56.674)"><path
             d="m 0,0 h 40.428 l -3.712,-11.566 -10.488,0.004 V -54.325 H 13.159 v 42.763 L 0.01,-11.586 Z"
             style="fill:#fff;fill-opacity:1;fill-rule:nonzero;stroke:none"
             id="path26" /></g><g
           id="g28"
           transform="translate(183.931,56.674)"><path
             d="M 0,0 H 41.363 L 37.65,-11.566 26.248,-11.562 V -54.325 H 13.159 v 42.763 L 0.01,-11.586 Z"
             style="fill:#fff;fill-opacity:1;fill-rule:nonzero;stroke:none"
             id="path30" /></g><g
           id="g32"
           transform="translate(120.1713,39.3947)"><path
             d="M 0,0 H 12.962 L 12.947,-37.045 H 0.077 Z"
             style="fill:#fff;fill-opacity:1;fill-rule:nonzero;stroke:none"
             id="path34" /></g><g
           id="g36"
           transform="translate(138.2728,56.8269)"><path
             d="m 0,0 h 12.947 v -25.3 l 12.831,12.592 15.456,-10e-4 -16.23,-15.75 18.179,-26.019 H 28.918 l -12.133,18.043 -3.838,-3.73 v -14.313 l -12.947,0 z"
             style="fill:#fff;fill-opacity:1;fill-rule:nonzero;stroke:none"
             id="path38" /></g><g
           id="g40"
           transform="translate(269.9242,56.8269)"><path
             d="m 0,0 h 12.947 v -25.3 l 12.831,12.592 15.456,-10e-4 -16.23,-15.75 18.179,-26.019 H 28.918 l -12.133,18.043 -3.838,-3.73 v -14.313 l -12.947,0 z"
             style="fill:#fff;fill-opacity:1;fill-rule:nonzero;stroke:none"
             id="path42" /></g><g
           id="g44"
           transform="translate(133.1722,50.1516)"><path
             d="m 0,0 c 0,-3.603 -2.921,-6.524 -6.524,-6.524 -3.604,0 -6.525,2.921 -6.525,6.524 0,3.604 2.921,6.524 6.525,6.524 C -2.921,6.524 0,3.604 0,0"
             style="fill:#fff;fill-opacity:1;fill-rule:nonzero;stroke:none"
             id="path46" /></g><g
           id="g48"
           transform="translate(242.4857,13.7448)"><path
             d="m 0,0 c -5.954,0 -10.78,4.827 -10.78,10.781 0,5.953 4.826,10.78 10.78,10.78 5.953,0 10.78,-4.827 10.78,-10.78 C 10.78,4.827 5.953,0 0,0 m 0,32.957 c -12.248,0 -22.176,-9.929 -22.176,-22.176 0,-12.248 9.928,-22.177 22.176,-22.177 12.247,0 22.176,9.929 22.176,22.177 0,12.247 -9.929,22.176 -22.176,22.176"
             style="fill:#fff;fill-opacity:1;fill-rule:nonzero;stroke:none"
             id="path50" /></g></g></g></g></svg>
